<svg xmlns="http://www.w3.org/2000/svg" width="189.42" height="79.622" viewBox="0 0 189.42 79.622">
  <path id="Path_38" data-name="Path 38" d="M17.138-9.1H36V0H5.658V-57.236h11.48ZM63.468.738A23.928,23.928,0,0,1,51.66-2.173a20.961,20.961,0,0,1-8.241-8.241,24.693,24.693,0,0,1-2.993-12.3,24.169,24.169,0,0,1,3.075-12.3,21.369,21.369,0,0,1,8.405-8.241A24.394,24.394,0,0,1,63.8-46.166a24.394,24.394,0,0,1,11.89,2.911,21.369,21.369,0,0,1,8.4,8.241,24.169,24.169,0,0,1,3.075,12.3,23.676,23.676,0,0,1-3.157,12.3,21.862,21.862,0,0,1-8.528,8.241A24.8,24.8,0,0,1,63.468.738Zm0-10a11.942,11.942,0,0,0,5.863-1.517,11.025,11.025,0,0,0,4.387-4.551,15.336,15.336,0,0,0,1.64-7.38q0-6.478-3.4-9.963a11.186,11.186,0,0,0-8.323-3.485,10.923,10.923,0,0,0-8.241,3.485q-3.321,3.485-3.321,9.963t3.239,9.963A10.665,10.665,0,0,0,63.468-9.266Zm49.938-36.9a19.066,19.066,0,0,1,8.938,2.009,16.457,16.457,0,0,1,6.068,5.207v-6.478h11.562V.328A24.372,24.372,0,0,1,137.432,11.6a18.872,18.872,0,0,1-7.626,7.872,24.377,24.377,0,0,1-12.3,2.911q-9.676,0-15.867-4.51a16.718,16.718,0,0,1-7.011-12.3h11.4a8.487,8.487,0,0,0,3.9,4.961,13.569,13.569,0,0,0,7.257,1.845A11.231,11.231,0,0,0,125.3,9.389Q128.412,6.4,128.412.328V-6.724a17.439,17.439,0,0,1-6.109,5.33,18.226,18.226,0,0,1-8.9,2.132,19.512,19.512,0,0,1-10.5-2.952,20.557,20.557,0,0,1-7.5-8.323A26.729,26.729,0,0,1,92.66-22.878,26.292,26.292,0,0,1,95.407-35.1a20.134,20.134,0,0,1,7.462-8.2A19.866,19.866,0,0,1,113.406-46.166Zm15.006,23.452a14.725,14.725,0,0,0-1.64-7.175,11.563,11.563,0,0,0-4.428-4.592,11.835,11.835,0,0,0-5.986-1.6,11.627,11.627,0,0,0-5.9,1.558,11.732,11.732,0,0,0-4.387,4.551,14.256,14.256,0,0,0-1.681,7.093,14.726,14.726,0,0,0,1.681,7.175,12.1,12.1,0,0,0,4.428,4.715,11.248,11.248,0,0,0,5.863,1.64,11.835,11.835,0,0,0,5.986-1.6,11.563,11.563,0,0,0,4.428-4.592A14.725,14.725,0,0,0,128.412-22.714ZM171.38.738a23.928,23.928,0,0,1-11.808-2.911,20.961,20.961,0,0,1-8.241-8.241,24.693,24.693,0,0,1-2.993-12.3,24.169,24.169,0,0,1,3.075-12.3,21.369,21.369,0,0,1,8.4-8.241,24.394,24.394,0,0,1,11.89-2.911,24.394,24.394,0,0,1,11.89,2.911,21.369,21.369,0,0,1,8.4,8.241,24.169,24.169,0,0,1,3.075,12.3,23.676,23.676,0,0,1-3.157,12.3,21.861,21.861,0,0,1-8.528,8.241A24.8,24.8,0,0,1,171.38.738Zm0-10a11.942,11.942,0,0,0,5.863-1.517,11.025,11.025,0,0,0,4.387-4.551,15.336,15.336,0,0,0,1.64-7.38q0-6.478-3.4-9.963a11.186,11.186,0,0,0-8.323-3.485,10.923,10.923,0,0,0-8.241,3.485q-3.321,3.485-3.321,9.963t3.239,9.963A10.665,10.665,0,0,0,171.38-9.266Z" transform="translate(-5.658 57.236)"/>
</svg>
