<svg id="linkedin-letters" xmlns="http://www.w3.org/2000/svg" width="15.038" height="14.372" viewBox="0 0 15.038 14.372">
  <g id="Group_84" data-name="Group 84" transform="translate(0 0)">
    <rect id="Rectangle_44" data-name="Rectangle 44" width="3.231" height="9.702" transform="translate(0.186 4.67)"/>
    <path id="Path_31" data-name="Path 31" d="M160.418,140.442a3.477,3.477,0,0,0-2.692-1.111,3.88,3.88,0,0,0-1.121.152,2.544,2.544,0,0,0-.852.426,3.648,3.648,0,0,0-.935,1.027v-1.38H151.6l.01.47q.01.47.01,2.9t-.02,6.334h3.221v-5.414a2.365,2.365,0,0,1,.108-.793,2.079,2.079,0,0,1,.622-.837,1.585,1.585,0,0,1,1.033-.338,1.393,1.393,0,0,1,1.239.583,2.833,2.833,0,0,1,.4,1.611v5.189h3.221V143.7A4.661,4.661,0,0,0,160.418,140.442Z" transform="translate(-146.399 -134.886)"/>
    <path id="Path_32" data-name="Path 32" d="M1.821,9.708A1.843,1.843,0,0,0,.5,10.183a1.577,1.577,0,0,0-.5,1.2,1.6,1.6,0,0,0,.49,1.194,1.767,1.767,0,0,0,1.292.48H1.8a1.845,1.845,0,0,0,1.327-.48,1.55,1.55,0,0,0,.494-1.194,1.633,1.633,0,0,0-.5-1.2A1.79,1.79,0,0,0,1.821,9.708Z" transform="translate(0 -9.708)"/>
  </g>
</svg>
