<svg id="youtube-logo" xmlns="http://www.w3.org/2000/svg" width="19.4" height="13.857" viewBox="0 0 19.4 13.857">
  <path id="Path_33" data-name="Path 33" d="M19.389,78.393q-.011-.585-.092-1.478a13.441,13.441,0,0,0-.233-1.6,2.518,2.518,0,0,0-.752-1.332,2.307,2.307,0,0,0-1.348-.628A71.024,71.024,0,0,0,9.7,73.088a71.021,71.021,0,0,0-7.264.271,2.282,2.282,0,0,0-1.342.628,2.532,2.532,0,0,0-.747,1.332,11.982,11.982,0,0,0-.244,1.6q-.081.893-.092,1.478T0,80.017q0,1.039.011,1.624T.1,83.118a13.391,13.391,0,0,0,.233,1.6,2.516,2.516,0,0,0,.752,1.331,2.309,2.309,0,0,0,1.348.628,70.957,70.957,0,0,0,7.264.271,70.957,70.957,0,0,0,7.264-.271,2.283,2.283,0,0,0,1.343-.628,2.532,2.532,0,0,0,.747-1.331,11.991,11.991,0,0,0,.244-1.6q.081-.893.092-1.478t.011-1.624Q19.4,78.977,19.389,78.393ZM13.532,80.6,7.99,84.065a.617.617,0,0,1-.368.108.749.749,0,0,1-.336-.087.645.645,0,0,1-.357-.606V76.552a.645.645,0,0,1,.357-.606.652.652,0,0,1,.7.022l5.543,3.464a.689.689,0,0,1,0,1.169Z" transform="translate(0 -73.088)"/>
</svg>
