<svg xmlns="http://www.w3.org/2000/svg" width="104.38" height="22.651" viewBox="0 0 104.38 22.651">
  <g id="Group_80" data-name="Group 80" transform="translate(-452.97 -88)">
    <g id="Group_76" data-name="Group 76" transform="translate(452.97 88)">
      <path id="Path_28" data-name="Path 28" d="M9.565,0H20.724L11.159,22.318H0Z" fill="#fff"/>
      <circle id="Ellipse_27" data-name="Ellipse 27" cx="6" cy="6" r="6" transform="translate(17.03 10.651)" fill="#fff"/>
    </g>
    <path id="Path_30" data-name="Path 30" d="M5.825-3.3h5.6V0H1.55V-17.55H5.825ZM21.075.175a9.16,9.16,0,0,1-4.538-1.15,8.6,8.6,0,0,1-3.275-3.212A8.978,8.978,0,0,1,12.05-8.825a8.912,8.912,0,0,1,1.213-4.625,8.624,8.624,0,0,1,3.275-3.2,9.16,9.16,0,0,1,4.538-1.15,9.16,9.16,0,0,1,4.538,1.15,8.443,8.443,0,0,1,3.25,3.2A9.057,9.057,0,0,1,30.05-8.825a9.051,9.051,0,0,1-1.2,4.638A8.532,8.532,0,0,1,25.6-.975,9.09,9.09,0,0,1,21.075.175Zm0-3.9a4.307,4.307,0,0,0,3.362-1.4,5.315,5.315,0,0,0,1.263-3.7,5.3,5.3,0,0,0-1.263-3.712,4.326,4.326,0,0,0-3.362-1.388,4.375,4.375,0,0,0-3.388,1.375,5.3,5.3,0,0,0-1.262,3.725,5.3,5.3,0,0,0,1.262,3.713A4.355,4.355,0,0,0,21.075-3.725ZM43.375-12a3.2,3.2,0,0,0-1.362-1.338,4.458,4.458,0,0,0-2.088-.463A4.3,4.3,0,0,0,36.6-12.438,5.171,5.171,0,0,0,35.35-8.8a5.234,5.234,0,0,0,1.313,3.788A4.78,4.78,0,0,0,40.275-3.65a4.369,4.369,0,0,0,2.662-.8,4.534,4.534,0,0,0,1.588-2.3H39.1V-9.9h9.3v3.975A8.385,8.385,0,0,1,46.787-2.95,8.508,8.508,0,0,1,43.9-.725a8.925,8.925,0,0,1-3.95.85,9.35,9.35,0,0,1-4.638-1.138,8.1,8.1,0,0,1-3.175-3.163A9.28,9.28,0,0,1,31-8.8a9.35,9.35,0,0,1,1.138-4.637A8.1,8.1,0,0,1,35.3-16.613a9.28,9.28,0,0,1,4.625-1.137,8.985,8.985,0,0,1,5.313,1.525A7.2,7.2,0,0,1,48.1-12Zm15,12.175a9.16,9.16,0,0,1-4.537-1.15,8.6,8.6,0,0,1-3.275-3.212A8.978,8.978,0,0,1,49.35-8.825a8.912,8.912,0,0,1,1.212-4.625,8.624,8.624,0,0,1,3.275-3.2,9.16,9.16,0,0,1,4.537-1.15,9.16,9.16,0,0,1,4.538,1.15,8.443,8.443,0,0,1,3.25,3.2A9.057,9.057,0,0,1,67.35-8.825a9.051,9.051,0,0,1-1.2,4.638A8.532,8.532,0,0,1,62.9-.975,9.09,9.09,0,0,1,58.375.175Zm0-3.9a4.307,4.307,0,0,0,3.363-1.4A5.315,5.315,0,0,0,63-8.825a5.3,5.3,0,0,0-1.263-3.712,4.326,4.326,0,0,0-3.363-1.388,4.375,4.375,0,0,0-3.387,1.375,5.3,5.3,0,0,0-1.263,3.725,5.3,5.3,0,0,0,1.263,3.713A4.355,4.355,0,0,0,58.375-3.725Z" transform="translate(490 108.8)" fill="#fff"/>
  </g>
</svg>
